<svg width="65" height="65" viewBox="0 0 65 65" fill="none" xmlns="http://www.w3.org/2000/svg">
<path d="M24.375 41.8311V31.9922C24.375 31.0189 24.0259 30.1831 23.3276 29.4849C22.6294 28.7866 21.7936 28.4375 20.8203 28.4375C20.5664 28.4375 20.3019 28.4692 20.0269 28.5327C19.7518 28.5962 19.5085 28.6914 19.2969 28.8184V22.8516C19.2969 21.8783 18.9478 21.0425 18.2495 20.3442C17.5513 19.646 16.7155 19.2969 15.7422 19.2969C15.4883 19.2969 15.2238 19.3286 14.9487 19.3921C14.6737 19.4556 14.4303 19.5508 14.2188 19.6777V16.7578C14.2188 15.7845 13.8696 14.9487 13.1714 14.2505C12.4731 13.5522 11.6374 13.2031 10.6641 13.2031C9.86003 13.2031 9.14062 13.457 8.50586 13.9648C7.87109 14.4727 7.44792 15.1074 7.23633 15.8691C6.9401 15.6576 6.60156 15.4989 6.2207 15.3931C5.83984 15.2873 5.45898 15.2344 5.07812 15.2344C3.97786 15.2344 3.02572 15.6364 2.22168 16.4404C1.41764 17.2445 1.01562 18.1966 1.01562 19.2969V36.5625C1.01562 36.6471 1.0262 36.7318 1.04736 36.8164C1.06852 36.901 1.10026 36.9857 1.14258 37.0703L7.23633 48.2422C7.27865 48.2845 7.31038 48.3268 7.33154 48.3691C7.3527 48.4115 7.38444 48.4326 7.42676 48.4326L15.3613 56.4307C15.6576 56.6846 15.8797 57.002 16.0278 57.3828C16.1759 57.7637 16.25 58.1657 16.25 58.5889V62.9688C16.25 63.265 16.3452 63.5083 16.5356 63.6987C16.7261 63.8892 16.9694 63.9844 17.2656 63.9844H29.4531C29.7493 63.9844 29.9927 63.8892 30.1831 63.6987C30.3735 63.5083 30.4688 63.265 30.4688 62.9688V50.3369C30.4688 49.7021 30.3524 49.0885 30.1196 48.4961C29.8869 47.9036 29.5378 47.3747 29.0723 46.9092L24.375 41.8311ZM20.8203 30.4688C21.2435 30.4688 21.6032 30.6169 21.8994 30.9131C22.1956 31.2093 22.3438 31.569 22.3438 31.9922V39.6729L19.2969 36.3721V31.9922C19.2969 31.569 19.445 31.2093 19.7412 30.9131C20.0374 30.6169 20.3971 30.4688 20.8203 30.4688ZM15.7422 21.3281C16.1654 21.3281 16.5251 21.4762 16.8213 21.7725C17.1175 22.0687 17.2656 22.4284 17.2656 22.8516V34.2139L16.5674 33.4521C16.2712 33.1559 15.9326 32.9232 15.5518 32.7539C15.1709 32.5846 14.7689 32.5 14.3457 32.5H14.2188V22.8516C14.2188 22.4284 14.3669 22.0687 14.6631 21.7725C14.9593 21.4762 15.319 21.3281 15.7422 21.3281ZM9.14062 16.7578C9.14062 16.3346 9.28874 15.9749 9.58496 15.6787C9.88118 15.3825 10.2409 15.2344 10.6641 15.2344C11.0872 15.2344 11.4469 15.3825 11.7432 15.6787C12.0394 15.9749 12.1875 16.3346 12.1875 16.7578V33.2617C11.9759 33.4733 11.7855 33.7166 11.6162 33.9917C11.4469 34.2668 11.32 34.5524 11.2354 34.8486L9.14062 32.1191V19.2969V16.7578ZM28.4375 61.9531H18.2812V58.5889C18.2812 57.8695 18.1543 57.203 17.9004 56.5894C17.6465 55.9757 17.2868 55.4362 16.8213 54.9707L8.9502 47.0996L3.04688 36.3086V19.2969C3.04688 18.7467 3.24788 18.2707 3.6499 17.8687C4.05192 17.4666 4.52799 17.2656 5.07812 17.2656C5.62826 17.2656 6.10433 17.4666 6.50635 17.8687C6.90837 18.2707 7.10938 18.7467 7.10938 19.2969V32.5C7.10938 32.627 7.13053 32.7433 7.17285 32.8491C7.21517 32.9549 7.25749 33.0501 7.2998 33.1348L18.4717 47.3535L20.1221 46.084L13.2031 37.3242V35.5469C13.2031 35.2507 13.2983 35.0073 13.4888 34.8169C13.6792 34.6265 13.9225 34.5312 14.2188 34.5312H14.3457C14.4727 34.5312 14.6102 34.563 14.7583 34.6265C14.9064 34.6899 15.0228 34.764 15.1074 34.8486L27.6123 48.2422C27.8662 48.5384 28.0672 48.8664 28.2153 49.2261C28.3634 49.5858 28.4375 49.9561 28.4375 50.3369V61.9531ZM59.9219 15.2344C59.541 15.2344 59.1602 15.2873 58.7793 15.3931C58.3984 15.4989 58.0599 15.6576 57.7637 15.8691C57.5521 15.1074 57.1395 14.4727 56.5259 13.9648C55.9123 13.457 55.1823 13.2031 54.3359 13.2031C53.3626 13.2031 52.5269 13.5522 51.8286 14.2505C51.1304 14.9487 50.7812 15.7845 50.7812 16.7578V19.6777C50.5697 19.5508 50.3263 19.4556 50.0513 19.3921C49.7762 19.3286 49.5117 19.2969 49.2578 19.2969C48.2845 19.2969 47.4487 19.646 46.7505 20.3442C46.0522 21.0425 45.7031 21.8783 45.7031 22.8516V28.8184C45.4915 28.6914 45.2482 28.5962 44.9731 28.5327C44.6981 28.4692 44.4336 28.4375 44.1797 28.4375C43.2064 28.4375 42.3706 28.7866 41.6724 29.4849C40.9741 30.1831 40.625 31.0189 40.625 31.9922V41.8311L35.9277 46.9092C35.4622 47.3747 35.1131 47.9036 34.8804 48.4961C34.6476 49.0885 34.5312 49.7021 34.5312 50.3369V62.9688C34.5312 63.265 34.6265 63.5083 34.8169 63.6987C35.0073 63.8892 35.2507 63.9844 35.5469 63.9844H47.7344C48.0306 63.9844 48.2739 63.8892 48.4644 63.6987C48.6548 63.5083 48.75 63.265 48.75 62.9688V58.5889C48.75 58.1657 48.8241 57.7637 48.9722 57.3828C49.1203 57.002 49.3424 56.6846 49.6387 56.4307L57.5732 48.4326C57.6156 48.4326 57.6473 48.4115 57.6685 48.3691C57.6896 48.3268 57.7214 48.2845 57.7637 48.2422L63.8574 37.0703C63.8997 36.9857 63.9315 36.901 63.9526 36.8164C63.9738 36.7318 63.9844 36.6471 63.9844 36.5625V19.2969C63.9844 18.1966 63.5824 17.2445 62.7783 16.4404C61.9743 15.6364 61.0221 15.2344 59.9219 15.2344ZM52.8125 16.7578C52.8125 16.3346 52.9606 15.9749 53.2568 15.6787C53.5531 15.3825 53.9128 15.2344 54.3359 15.2344C54.7591 15.2344 55.1188 15.3825 55.415 15.6787C55.7113 15.9749 55.8594 16.3346 55.8594 16.7578V32.1191L53.7646 34.8486C53.68 34.5524 53.5531 34.2668 53.3838 33.9917C53.2145 33.7166 53.0241 33.4733 52.8125 33.2617V22.8516V16.7578ZM47.7344 22.8516C47.7344 22.4284 47.8825 22.0687 48.1787 21.7725C48.4749 21.4762 48.8346 21.3281 49.2578 21.3281C49.681 21.3281 50.0407 21.4762 50.3369 21.7725C50.6331 22.0687 50.7812 22.4284 50.7812 22.8516V32.5H50.6543C50.2311 32.5 49.8291 32.5846 49.4482 32.7539C49.0674 32.9232 48.7288 33.1559 48.4326 33.4521L47.7344 34.2139V31.9922V22.8516ZM42.6562 31.9922C42.6562 31.569 42.8044 31.2093 43.1006 30.9131C43.3968 30.6169 43.7565 30.4688 44.1797 30.4688C44.6029 30.4688 44.9626 30.6169 45.2588 30.9131C45.555 31.2093 45.7031 31.569 45.7031 31.9922V36.3721L42.6562 39.6729V31.9922ZM61.9531 36.3086L56.0498 47.0996L48.1787 54.9707C47.7132 55.4362 47.3535 55.9757 47.0996 56.5894C46.8457 57.203 46.7188 57.8695 46.7188 58.5889V61.9531H36.5625V50.3369C36.5625 49.9561 36.6366 49.5858 36.7847 49.2261C36.9328 48.8664 37.1338 48.5384 37.3877 48.2422L49.8926 34.8486C49.9772 34.764 50.0936 34.6899 50.2417 34.6265C50.3898 34.563 50.5273 34.5312 50.6543 34.5312H50.7812C51.0775 34.5312 51.3208 34.6265 51.5112 34.8169C51.7017 35.0073 51.7969 35.2507 51.7969 35.5469V37.3242L44.8779 46.084L46.5283 47.3535L57.7002 33.1348C57.7425 33.0501 57.7848 32.9549 57.8271 32.8491C57.8695 32.7433 57.8906 32.627 57.8906 32.5V19.2969C57.8906 18.7467 58.0916 18.2707 58.4937 17.8687C58.8957 17.4666 59.3717 17.2656 59.9219 17.2656C60.472 17.2656 60.9481 17.4666 61.3501 17.8687C61.7521 18.2707 61.9531 18.7467 61.9531 19.2969V36.3086ZM47.7344 9.39453C47.6497 7.99805 47.2795 6.71794 46.6235 5.5542C45.9676 4.39046 45.0684 3.40657 43.9258 2.60254C42.3177 1.45996 40.5192 0.930988 38.5303 1.01562C36.5413 1.10026 34.7852 1.7985 33.2617 3.11035L32.5 3.74512L31.7383 3.11035C30.2148 1.7985 28.4587 1.10026 26.4697 1.01562C24.4808 0.930988 22.6823 1.45996 21.0742 2.60254C19.9316 3.40657 19.0324 4.39046 18.3765 5.5542C17.7205 6.71794 17.3503 7.99805 17.2656 9.39453C17.181 10.7487 17.3926 12.0605 17.9004 13.3301C18.4082 14.5996 19.1699 15.6787 20.1855 16.5674L31.8018 27.168C31.9287 27.2526 32.0451 27.3161 32.1509 27.3584C32.2567 27.4007 32.373 27.4219 32.5 27.4219C32.627 27.4219 32.7433 27.4007 32.8491 27.3584C32.9549 27.3161 33.0713 27.2526 33.1982 27.168L44.8145 16.5674C45.8301 15.6787 46.5918 14.5996 47.0996 13.3301C47.6074 12.0605 47.819 10.7487 47.7344 9.39453ZM32.5 25.0732L21.582 15.1074C20.778 14.388 20.1855 13.5417 19.8047 12.5684C19.4238 11.5951 19.2546 10.5794 19.2969 9.52148C19.3815 8.46354 19.6777 7.47966 20.1855 6.56982C20.6934 5.65999 21.3704 4.8877 22.2168 4.25293C22.8092 3.87207 23.4334 3.57585 24.0894 3.36426C24.7453 3.15267 25.4118 3.04688 26.0889 3.04688C26.8506 3.04688 27.6017 3.18441 28.3423 3.45947C29.0828 3.73454 29.7705 4.12598 30.4053 4.63379L31.8652 5.83984C32.0345 6.00911 32.2461 6.09375 32.5 6.09375C32.7539 6.09375 32.9655 6.00911 33.1348 5.83984L34.5947 4.63379C35.7796 3.66048 37.1338 3.14209 38.6572 3.07861C40.1807 3.01514 41.556 3.40657 42.7832 4.25293C43.6296 4.8877 44.3066 5.65999 44.8145 6.56982C45.3223 7.47966 45.6185 8.46354 45.7031 9.52148C45.7454 10.5794 45.5762 11.5951 45.1953 12.5684C44.8145 13.5417 44.222 14.388 43.418 15.1074L32.5 25.0732Z" fill="#00715D"/>
</svg>
