<svg width="25" height="26" viewBox="0 0 25 26" fill="none" xmlns="http://www.w3.org/2000/svg">
<g clip-path="url(#clip0_608_2042)">
<g clip-path="url(#clip1_608_2042)">
<path d="M22.6506 2.74141C21.7884 5.494 15.7407 7.00458 13.46 9.66764C11.3156 12.1741 12.1439 14.9378 12.8019 15.7099C13.5054 14.3672 14.7876 13.405 16.1378 12.7112C23.1045 9.11938 22.5939 4.59885 22.6621 3.4911C22.9457 5.6059 22.4124 7.58643 20.5629 9.86904C20.1658 10.3614 18.7248 11.5923 17.3065 12.4874C15.7294 13.4832 14.1748 14.3112 13.2331 15.9673C12.9381 16.4821 12.7452 17.0303 12.541 17.5786C12.3595 18.0709 12.1778 18.5744 11.9963 19.0668C11.9056 18.7087 11.8261 18.3395 11.758 17.9702C11.5311 16.7617 11.4176 15.5309 11.3269 14.3001C11.2134 12.5993 11.361 10.8873 11.8489 9.25365C12.7225 6.32202 13.8685 6.07586 13.7778 4.95691C13.7437 4.43101 13.1763 3.79321 12.5183 4.64361C12.0077 5.2926 10.9071 9.94741 10.5326 12.1518C10.4873 12.0399 10.4306 11.928 10.3851 11.8161C10.1809 11.3684 9.97666 10.9208 9.70431 10.5069C8.80798 9.17533 7.45775 8.57109 6.07348 7.83259C4.82537 7.16123 3.55456 6.22132 3.18013 5.82969C1.4895 4.02819 0.922178 2.40572 1.0243 0.615418C1.13776 1.54414 1.0016 5.37092 7.06062 7.95568C8.24065 8.4592 9.37532 9.18652 10.0447 10.2719C10.544 9.57812 11.0773 7.21718 9.11434 5.24784C7.03793 3.15542 1.87528 2.26026 0.97891 0C-0.325936 2.17075 -0.371318 5.15833 1.11507 7.63119C1.37604 8.06758 1.70508 8.4592 2.07952 8.79489C3.48648 10.0928 5.47212 10.6635 7.36698 10.6859C7.7868 10.6859 8.96682 10.7418 9.48879 11.7713C9.69299 12.1853 9.89727 12.8231 10.0561 13.5168C10.2036 14.177 10.2603 14.8596 10.249 15.5422C10.249 16.6387 10.3284 17.724 10.5099 18.7982C10.8504 20.8795 11.758 22.1551 11.0546 24.572C10.8617 25.2433 11.2475 25.9147 11.951 25.993C12.575 26.0602 13.131 25.635 13.2217 25.0419C13.3239 24.3929 13.2785 23.6209 13.0289 22.7817C12.9948 22.6362 12.9494 22.4012 12.9154 22.2557C12.8133 20.8459 13.131 18.5296 13.5848 17.4443C14.1181 16.1688 15.5137 16.0121 16.013 15.9673C18.2596 15.7883 20.5629 14.9267 22.1174 13.2707C22.5258 12.8343 22.8776 12.3419 23.1499 11.8048C24.693 8.75012 24.3754 5.20308 22.628 2.74141H22.6506Z" fill="white"/>
</g>
</g>
<defs>
<clipPath id="clip0_608_2042">
<rect width="24.1429" height="26" fill="white"/>
</clipPath>
<clipPath id="clip1_608_2042">
<rect width="24.1429" height="26" fill="white"/>
</clipPath>
</defs>
</svg>
