<svg width="65" height="65" viewBox="0 0 65 65" fill="none" xmlns="http://www.w3.org/2000/svg">
<path d="M12.1875 47.7344C11.8913 47.7344 11.6479 47.8296 11.4575 48.02C11.2671 48.2104 11.1719 48.4538 11.1719 48.75V51.7969C10.8757 51.7969 10.6323 51.8921 10.4419 52.0825C10.2515 52.2729 10.1562 52.5163 10.1562 52.8125V61.9531C10.1562 62.2493 10.2515 62.4927 10.4419 62.6831C10.6323 62.8735 10.8757 62.9688 11.1719 62.9688H53.8281C54.1243 62.9688 54.3677 62.8735 54.5581 62.6831C54.7485 62.4927 54.8438 62.2493 54.8438 61.9531V52.8125C54.8438 52.5163 54.7485 52.2729 54.5581 52.0825C54.3677 51.8921 54.1243 51.7969 53.8281 51.7969V48.75C53.8281 48.4538 53.7329 48.2104 53.5425 48.02C53.3521 47.8296 53.1087 47.7344 52.8125 47.7344H51.9238C52.0508 47.1419 52.2729 46.5706 52.5903 46.0205C52.9077 45.4704 53.278 44.8145 53.7012 44.0527C54.1243 43.2487 54.5158 42.3389 54.8755 41.3232C55.2352 40.3076 55.4997 39.0804 55.6689 37.6416C56.7269 36.2874 57.7002 34.891 58.5889 33.4521C59.4775 31.971 60.2498 30.437 60.9058 28.8501C61.5617 27.2632 62.0589 25.6234 62.3975 23.9307C62.7783 22.238 62.9688 20.4818 62.9688 18.6621C62.9688 16.377 62.5667 14.2399 61.7627 12.251C60.9163 10.2197 59.7843 8.44238 58.3667 6.91895C56.9491 5.39551 55.2881 4.21061 53.3838 3.36426C51.4372 2.47559 49.3848 2.03125 47.2266 2.03125C42.9525 2.03125 39.5671 2.70833 37.0703 4.0625C34.5736 5.41667 33.0501 6.3265 32.5 6.79199C31.9499 6.3265 30.4264 5.41667 27.9297 4.0625C25.4329 2.70833 22.0475 2.03125 17.7734 2.03125C15.6152 2.03125 13.5628 2.47559 11.6162 3.36426C9.71191 4.21061 8.05094 5.39551 6.6333 6.91895C5.21566 8.44238 4.08366 10.2197 3.2373 12.251C2.43327 14.2399 2.03125 16.377 2.03125 18.6621C2.03125 21.6243 2.50732 24.4385 3.45947 27.1045C4.41162 29.7705 5.64941 32.2673 7.17285 34.5947C7.2998 36.1182 7.62777 37.5146 8.15674 38.7842C8.68571 40.0537 9.22526 41.2386 9.77539 42.3389C10.4525 43.5661 11.0343 44.624 11.521 45.5127C12.0076 46.4014 12.251 47.1419 12.251 47.7344H12.1875ZM31.8018 8.82324C31.8864 8.9502 31.9922 9.03483 32.1191 9.07715C32.2461 9.11946 32.373 9.14062 32.5 9.14062C32.627 9.14062 32.7539 9.11946 32.8809 9.07715C33.0078 9.03483 33.1136 8.9502 33.1982 8.82324C33.1982 8.82324 34.3831 8.02979 36.7529 6.44287C39.1227 4.85596 42.6139 4.0625 47.2266 4.0625C49.1309 4.0625 50.9082 4.44336 52.5586 5.20508C54.209 5.9668 55.6584 7.00358 56.9067 8.31543C58.1551 9.62728 59.139 11.1719 59.8584 12.9492C60.5778 14.7266 60.9375 16.6309 60.9375 18.6621C60.9375 21.4551 60.472 24.1317 59.541 26.6919C58.61 29.2521 57.3828 31.6536 55.8594 33.8965V27.4219C55.8594 26.5755 55.5632 25.8561 54.9707 25.2637C54.3783 24.6712 53.6589 24.375 52.8125 24.375C52.6432 24.375 52.474 24.3962 52.3047 24.4385C52.1354 24.4808 51.9661 24.5231 51.7969 24.5654V24.375C51.7969 23.5286 51.5007 22.8092 50.9082 22.2168C50.3158 21.6243 49.5964 21.3281 48.75 21.3281C48.5807 21.3281 48.4115 21.3493 48.2422 21.3916C48.0729 21.4339 47.9036 21.4762 47.7344 21.5186V21.3281C47.7344 20.4818 47.4382 19.7624 46.8457 19.1699C46.2533 18.5775 45.5339 18.2812 44.6875 18.2812C44.3066 18.2812 43.9364 18.3553 43.5767 18.5034C43.217 18.6515 42.9102 18.8314 42.6562 19.043C42.4023 18.8314 42.0955 18.6515 41.7358 18.5034C41.3761 18.3553 41.0059 18.2812 40.625 18.2812C40.4557 18.2812 40.2865 18.3024 40.1172 18.3447C39.9479 18.387 39.7786 18.4294 39.6094 18.4717V17.2656C39.6094 16.4193 39.3132 15.6999 38.7207 15.1074C38.1283 14.515 37.4089 14.2188 36.5625 14.2188C36.3932 14.2188 36.224 14.2399 36.0547 14.2822C35.8854 14.3245 35.7161 14.3669 35.5469 14.4092V14.2188C35.5469 13.3724 35.2507 12.653 34.6582 12.0605C34.0658 11.4681 33.3464 11.1719 32.5 11.1719C31.7806 11.1719 31.1564 11.3835 30.6274 11.8066C30.0985 12.2298 29.7493 12.7588 29.5801 13.3936C29.4108 13.3512 29.231 13.3089 29.0405 13.2666C28.8501 13.2243 28.6491 13.2031 28.4375 13.2031C27.5911 13.2031 26.8717 13.4993 26.2793 14.0918C25.6868 14.6842 25.3906 15.4036 25.3906 16.25V19.6777C25.179 19.5508 24.9357 19.4556 24.6606 19.3921C24.3856 19.3286 24.1211 19.2969 23.8672 19.2969C23.5286 19.2969 23.1901 19.3498 22.8516 19.4556C22.513 19.5614 22.2168 19.6989 21.9629 19.8682C21.709 19.4027 21.3493 19.0218 20.8838 18.7256C20.4183 18.4294 19.8893 18.2812 19.2969 18.2812C18.5775 18.2812 17.9533 18.4928 17.4243 18.916C16.8953 19.3392 16.5462 19.8682 16.377 20.5029C16.2077 20.4606 16.0278 20.4183 15.8374 20.376C15.647 20.3337 15.446 20.3125 15.2344 20.3125C14.388 20.3125 13.6686 20.6087 13.0762 21.2012C12.4837 21.7936 12.1875 22.513 12.1875 23.3594V25.7715C11.9759 25.6445 11.7326 25.5493 11.4575 25.4858C11.1825 25.4224 10.918 25.3906 10.6641 25.3906C9.69076 25.3906 8.85498 25.7397 8.15674 26.438C7.4585 27.1362 7.10938 27.972 7.10938 28.9453V30.4688C6.17839 28.6491 5.43783 26.7554 4.8877 24.7876C4.33757 22.8198 4.0625 20.778 4.0625 18.6621C4.0625 16.6309 4.4222 14.7266 5.1416 12.9492C5.861 11.1719 6.84489 9.62728 8.09326 8.31543C9.34163 7.00358 10.791 5.9668 12.4414 5.20508C14.0918 4.44336 15.8691 4.0625 17.7734 4.0625C22.3861 4.0625 25.8773 4.85596 28.2471 6.44287C30.6169 8.02979 31.8018 8.82324 31.8018 8.82324ZM41.6406 28.501C41.6406 30.7015 41.4396 32.4471 41.0376 33.7378C40.6356 35.0285 40.2018 36.097 39.7363 36.9434C39.3132 37.7474 38.89 38.5091 38.4668 39.2285C38.0436 39.9479 37.7686 40.752 37.6416 41.6406H27.4854C27.4854 40.6673 27.1891 39.6623 26.5967 38.6255C26.0042 37.5887 25.4118 36.4779 24.8193 35.293C24.1846 34.1081 23.6133 32.8597 23.1055 31.5479C22.5977 30.236 22.3438 28.8607 22.3438 27.4219C22.3438 26.6602 22.3438 25.8879 22.3438 25.105C22.3438 24.3221 22.3438 23.5498 22.3438 22.7881C22.3438 22.3649 22.4919 22.0158 22.7881 21.7407C23.0843 21.4657 23.444 21.3281 23.8672 21.3281C24.2904 21.3281 24.6501 21.4762 24.9463 21.7725C25.2425 22.0687 25.3906 22.4284 25.3906 22.8516V27.4219C25.3906 27.6335 25.4435 27.8133 25.5493 27.9614C25.6551 28.1095 25.7926 28.2259 25.9619 28.3105C25.9619 28.3105 26.5438 28.7549 27.7075 29.6436C28.8713 30.5322 29.4531 31.8229 29.4531 33.5156C29.4531 34.1927 29.7917 34.5312 30.4688 34.5312C31.1458 34.5312 31.4844 34.1927 31.4844 33.5156C31.4844 31.5267 30.9025 29.9821 29.7388 28.8818C28.575 27.7816 27.8027 27.1045 27.4219 26.8506C27.4219 25.0732 27.4219 23.3065 27.4219 21.5503C27.4219 19.7941 27.4219 18.0273 27.4219 16.25C27.4219 15.9538 27.5277 15.7104 27.7393 15.52C27.9508 15.3296 28.1836 15.2344 28.4375 15.2344C28.6914 15.2344 28.9242 15.3296 29.1357 15.52C29.3473 15.7104 29.4531 15.9326 29.4531 16.1865V23.3594C29.4531 24.0365 29.7917 24.375 30.4688 24.375C31.1458 24.375 31.4844 24.0365 31.4844 23.3594C31.4844 21.7936 31.4844 20.2173 31.4844 18.6304C31.4844 17.0435 31.4844 15.5729 31.4844 14.2188C31.4844 13.9225 31.5796 13.6792 31.77 13.4888C31.9604 13.2983 32.2038 13.2031 32.5 13.2031C32.7539 13.2031 32.9867 13.2983 33.1982 13.4888C33.4098 13.6792 33.5156 13.9225 33.5156 14.2188V24.375C33.5156 25.0521 33.8542 25.3906 34.5312 25.3906C35.2083 25.3906 35.5469 25.0521 35.5469 24.375V17.2656C35.5469 16.9694 35.6421 16.7261 35.8325 16.5356C36.0229 16.3452 36.2663 16.25 36.5625 16.25C36.8164 16.25 37.0492 16.3452 37.2607 16.5356C37.4723 16.7261 37.5781 16.9694 37.5781 17.2656V26.4062C37.5781 27.0833 37.9167 27.4219 38.5938 27.4219C39.2708 27.4219 39.6094 27.0833 39.6094 26.4062V21.3281C39.6094 21.0319 39.7046 20.7886 39.895 20.5981C40.0854 20.4077 40.3288 20.3125 40.625 20.3125C40.8789 20.3125 41.1117 20.4077 41.3232 20.5981C41.5348 20.7886 41.6406 21.0319 41.6406 21.3281C41.6406 22.513 41.6406 23.6979 41.6406 24.8828C41.6406 26.0677 41.6406 27.2738 41.6406 28.501ZM11.6162 41.3867C10.9814 40.2018 10.4102 38.9535 9.90234 37.6416C9.39453 36.3298 9.14062 34.9544 9.14062 33.5156V28.9453C9.14062 28.5221 9.28874 28.1624 9.58496 27.8662C9.88119 27.57 10.2409 27.4219 10.6641 27.4219C11.0872 27.4219 11.4469 27.57 11.7432 27.8662C12.0394 28.1624 12.1875 28.5221 12.1875 28.9453V33.5156C12.1875 33.7272 12.2404 33.9071 12.3462 34.0552C12.452 34.2033 12.5895 34.3197 12.7588 34.4043C12.7588 34.4043 13.3407 34.8486 14.5044 35.7373C15.6681 36.626 16.25 37.9167 16.25 39.6094C16.25 40.2865 16.5885 40.625 17.2656 40.625C17.9427 40.625 18.2812 40.2865 18.2812 39.6094C18.2812 37.6204 17.71 36.0758 16.5674 34.9756C15.4248 33.8753 14.6419 33.1982 14.2188 32.9443C14.2188 31.3363 14.2188 29.7388 14.2188 28.1519C14.2188 26.5649 14.2188 24.9674 14.2188 23.3594C14.2188 23.0632 14.3245 22.8198 14.5361 22.6294C14.7477 22.439 14.9805 22.3438 15.2344 22.3438C15.4883 22.3438 15.721 22.439 15.9326 22.6294C16.1442 22.8198 16.25 23.042 16.25 23.2959V30.4688C16.25 31.1458 16.5885 31.4844 17.2656 31.4844C17.9427 31.4844 18.2812 31.1458 18.2812 30.4688C18.2812 29.2839 18.2812 28.099 18.2812 26.9141C18.2812 25.7292 18.2812 24.5443 18.2812 23.3594C18.2812 23.3594 18.2812 23.3488 18.2812 23.3276C18.2812 23.3065 18.2812 23.2959 18.2812 23.2959V21.3281C18.2812 21.0319 18.3765 20.7886 18.5669 20.5981C18.7573 20.4077 19.0007 20.3125 19.2969 20.3125C19.5931 20.3125 19.8364 20.4077 20.0269 20.5981C20.2173 20.7886 20.3125 21.0319 20.3125 21.3281V22.7881C20.3125 22.7881 20.3125 22.7987 20.3125 22.8198C20.3125 22.841 20.3125 22.8516 20.3125 22.8516V27.4219C20.3125 29.1569 20.5981 30.7544 21.1694 32.2144C21.7407 33.6743 22.3438 35.0179 22.9785 36.2451C23.6556 37.4723 24.2375 38.5303 24.7241 39.4189C25.2108 40.3076 25.4541 41.0482 25.4541 41.6406H25.3906C25.0944 41.6406 24.8511 41.7358 24.6606 41.9263C24.4702 42.1167 24.375 42.36 24.375 42.6562V45.7031C24.0788 45.7031 23.8354 45.7983 23.645 45.9888C23.4546 46.1792 23.3594 46.4225 23.3594 46.7188V47.7344H14.2822C14.2822 46.7611 13.9966 45.756 13.4253 44.7192C12.854 43.6825 12.251 42.5716 11.6162 41.3867ZM44.6875 20.3125C44.9414 20.3125 45.1742 20.4077 45.3857 20.5981C45.5973 20.7886 45.7031 21.0319 45.7031 21.3281V31.4844C45.7031 32.1615 46.0417 32.5 46.7188 32.5C47.3958 32.5 47.7344 32.1615 47.7344 31.4844V24.375C47.7344 24.0788 47.8296 23.8354 48.02 23.645C48.2104 23.4546 48.4538 23.3594 48.75 23.3594C49.0039 23.3594 49.2367 23.4546 49.4482 23.645C49.6598 23.8354 49.7656 24.0788 49.7656 24.375V32.5C49.7656 32.9232 49.9243 33.2088 50.2417 33.3569C50.5591 33.505 50.8659 33.5368 51.1621 33.4521C51.3314 33.3675 51.4795 33.2511 51.6064 33.103C51.7334 32.9549 51.7969 32.7539 51.7969 32.5V27.4219C51.7969 27.1257 51.8921 26.8823 52.0825 26.6919C52.2729 26.5015 52.5163 26.4062 52.8125 26.4062C53.0664 26.4062 53.2992 26.5015 53.5107 26.6919C53.7223 26.8823 53.8281 27.1257 53.8281 27.4219V34.5947C53.8281 36.7952 53.6271 38.5409 53.2251 39.8315C52.8231 41.1222 52.3893 42.2119 51.9238 43.1006C51.5007 43.8623 51.0775 44.6029 50.6543 45.3223C50.2311 46.0417 49.9561 46.8457 49.8291 47.7344H41.6406V46.7188C41.6406 46.4225 41.5454 46.1792 41.355 45.9888C41.1646 45.7983 40.9212 45.7031 40.625 45.7031V42.6562C40.625 42.4023 40.5404 42.1802 40.3711 41.9897C40.2018 41.7993 39.9902 41.6829 39.7363 41.6406C39.8633 41.0482 40.0854 40.4769 40.4028 39.9268C40.7202 39.3766 41.0905 38.7207 41.5137 37.959C42.0638 36.9434 42.561 35.7056 43.0054 34.2456C43.4497 32.7856 43.6719 30.8708 43.6719 28.501C43.6719 27.2738 43.6719 26.0677 43.6719 24.8828C43.6719 23.6979 43.6719 22.513 43.6719 21.3281C43.6719 21.0319 43.7671 20.7886 43.9575 20.5981C44.1479 20.4077 44.3913 20.3125 44.6875 20.3125ZM26.4062 43.6719H26.4697H38.5938V45.7031H26.4062V43.6719ZM25.3906 47.7344H39.6094V60.9375H25.3906V47.7344ZM13.2031 49.7656H23.3594V51.7969H13.2031V49.7656ZM41.6406 49.7656H51.7969V51.7969H41.6406V49.7656ZM12.1875 53.8281H23.3594V60.9375H12.1875V53.8281ZM41.6406 53.8281H52.8125V60.9375H41.6406V53.8281Z" fill="#00715D"/>
</svg>
